<svg width="800" height="450" viewBox="0 0 800 450" fill="none" xmlns="http://www.w3.org/2000/svg">
  <rect width="800" height="450" fill="#1E293B"/>
  <rect x="40" y="40" width="720" height="50" rx="8" fill="#334155"/>
  <rect x="60" y="55" width="160" height="20" rx="4" fill="#475569"/>
  <rect x="640" y="55" width="100" height="20" rx="4" fill="#475569"/>
  <rect x="40" y="110" width="230" height="320" rx="8" fill="#334155"/>
  <rect x="60" y="130" width="190" height="30" rx="4" fill="#475569"/>
  <rect x="60" y="170" width="190" height="70" rx="4" fill="#475569"/>
  <rect x="60" y="250" width="190" height="70" rx="4" fill="#475569"/>
  <rect x="60" y="330" width="190" height="70" rx="4" fill="#475569"/>
  <rect x="290" y="110" width="230" height="320" rx="8" fill="#334155"/>
  <rect x="310" y="130" width="190" height="30" rx="4" fill="#475569"/>
  <rect x="310" y="170" width="190" height="70" rx="4" fill="#475569"/>
  <rect x="310" y="250" width="190" height="70" rx="4" fill="#475569"/>
  <rect x="310" y="330" width="190" height="70" rx="4" fill="#475569"/>
  <rect x="540" y="110" width="230" height="320" rx="8" fill="#334155"/>
  <rect x="560" y="130" width="190" height="30" rx="4" fill="#475569"/>
  <rect x="560" y="170" width="190" height="70" rx="4" fill="#10B981" fill-opacity="0.6"/>
  <rect x="560" y="250" width="190" height="70" rx="4" fill="#475569"/>
  <rect x="560" y="330" width="190" height="70" rx="4" fill="#475569"/>
</svg>