<svg width="800" height="450" viewBox="0 0 800 450" fill="none" xmlns="http://www.w3.org/2000/svg">
  <rect width="800" height="450" fill="#1E293B"/>
  <rect x="40" y="40" width="720" height="50" rx="8" fill="#334155"/>
  <rect x="60" y="55" width="160" height="20" rx="4" fill="#475569"/>
  <rect x="640" y="55" width="100" height="20" rx="4" fill="#475569"/>
  <rect x="40" y="110" width="720" height="320" rx="8" fill="#334155"/>
  <rect x="60" y="130" width="300" height="280" rx="4" fill="#475569"/>
  <rect x="380" y="130" width="360" height="180" rx="4" fill="#475569"/>
  <rect x="380" y="330" width="360" height="80" rx="4" fill="#475569"/>
  <rect x="400" y="350" width="100" height="20" rx="4" fill="#1E293B"/>
  <rect x="520" y="350" width="100" height="20" rx="4" fill="#1E293B"/>
  <rect x="640" y="350" width="80" height="20" rx="4" fill="#1E293B"/>
  <rect x="400" y="380" width="320" height="20" rx="4" fill="#1E293B"/>
  <circle cx="210" cy="210" r="80" fill="#8B5CF6" fill-opacity="0.6"/>
  <rect x="130" y="310" width="160" height="15" rx="2" fill="#1E293B"/>
  <rect x="150" y="335" width="120" height="15" rx="2" fill="#1E293B"/>
  <rect x="130" y="380" width="160" height="15" rx="2" fill="#1E293B"/>
</svg>