<svg width="800" height="450" viewBox="0 0 800 450" fill="none" xmlns="http://www.w3.org/2000/svg">
  <rect width="800" height="450" fill="#1E293B"/>
  <rect x="40" y="40" width="720" height="50" rx="8" fill="#334155"/>
  <rect x="60" y="55" width="160" height="20" rx="4" fill="#475569"/>
  <rect x="640" y="55" width="100" height="20" rx="4" fill="#475569"/>
  <rect x="40" y="110" width="720" height="80" rx="8" fill="#334155"/>
  <rect x="60" y="130" width="200" height="20" rx="4" fill="#475569"/>
  <rect x="280" y="130" width="200" height="20" rx="4" fill="#475569"/>
  <rect x="500" y="130" width="200" height="20" rx="4" fill="#475569"/>
  <rect x="60" y="160" width="130" height="20" rx="4" fill="#475569"/>
  <rect x="280" y="160" width="130" height="20" rx="4" fill="#475569"/>
  <rect x="500" y="160" width="130" height="20" rx="4" fill="#475569"/>
  <rect x="40" y="210" width="720" height="220" rx="8" fill="#334155"/>
  <rect x="60" y="230" width="200" height="180" rx="4" fill="#475569"/>
  <rect x="280" y="230" width="200" height="180" rx="4" fill="#10B981" fill-opacity="0.6"/>
  <rect x="500" y="230" width="200" height="180" rx="4" fill="#475569"/>
</svg>