<svg width="800" height="450" viewBox="0 0 800 450" fill="none" xmlns="http://www.w3.org/2000/svg">
  <rect width="800" height="450" fill="#1E293B"/>
  <rect x="40" y="40" width="720" height="50" rx="8" fill="#334155"/>
  <circle cx="70" cy="65" r="10" fill="#3B82F6"/>
  <rect x="100" y="55" width="120" height="20" rx="4" fill="#475569"/>
  <rect x="560" y="55" width="80" height="20" rx="4" fill="#475569"/>
  <rect x="650" y="55" width="80" height="20" rx="4" fill="#475569"/>
  <rect x="40" y="110" width="720" height="60" rx="8" fill="#334155"/>
  <rect x="60" y="130" width="150" height="20" rx="4" fill="#475569"/>
  <rect x="230" y="130" width="150" height="20" rx="4" fill="#475569"/>
  <rect x="400" y="130" width="150" height="20" rx="4" fill="#475569"/>
  <rect x="570" y="130" width="150" height="20" rx="4" fill="#475569"/>
  <rect x="40" y="190" width="720" height="240" rx="8" fill="#334155"/>
  <rect x="60" y="210" width="200" height="20" rx="4" fill="#475569"/>
  <rect x="60" y="240" width="680" height="170" rx="4" fill="#475569"/>
  <rect x="80" y="260" width="640" height="20" rx="4" fill="#1E293B"/>
  <rect x="80" y="290" width="440" height="20" rx="4" fill="#1E293B"/>
  <rect x="80" y="320" width="320" height="20" rx="4" fill="#1E293B"/>
  <rect x="80" y="350" width="520" height="20" rx="4" fill="#1E293B"/>
  <rect x="80" y="380" width="380" height="20" rx="4" fill="#1E293B"/>
</svg>