<svg width="800" height="450" viewBox="0 0 800 450" fill="none" xmlns="http://www.w3.org/2000/svg">
  <rect width="800" height="450" fill="#1E293B"/>
  <rect x="40" y="40" width="720" height="50" rx="8" fill="#334155"/>
  <circle cx="70" cy="65" r="10" fill="#3B82F6"/>
  <rect x="100" y="55" width="120" height="20" rx="4" fill="#475569"/>
  <rect x="560" y="55" width="80" height="20" rx="4" fill="#475569"/>
  <rect x="650" y="55" width="80" height="20" rx="4" fill="#475569"/>
  <rect x="40" y="110" width="720" height="100" rx="8" fill="#334155"/>
  <rect x="60" y="130" width="300" height="20" rx="4" fill="#475569"/>
  <rect x="60" y="160" width="200" height="20" rx="4" fill="#475569"/>
  <rect x="40" y="230" width="340" height="200" rx="8" fill="#334155"/>
  <rect x="400" y="230" width="360" height="200" rx="8" fill="#334155"/>
  <rect x="60" y="250" width="100" height="20" rx="4" fill="#475569"/>
  <rect x="420" y="250" width="100" height="20" rx="4" fill="#475569"/>
  <rect x="60" y="280" width="300" height="130" rx="4" fill="#475569"/>
  <rect x="420" y="280" width="300" height="130" rx="4" fill="#475569"/>
  <circle cx="210" cy="345" r="50" fill="#3B82F6" fill-opacity="0.6"/>
  <circle cx="570" cy="345" r="50" fill="#10B981" fill-opacity="0.6"/>
</svg>