<svg width="800" height="450" viewBox="0 0 800 450" fill="none" xmlns="http://www.w3.org/2000/svg">
  <rect width="800" height="450" fill="#1E293B"/>
  <rect x="40" y="40" width="720" height="50" rx="8" fill="#334155"/>
  <rect x="60" y="55" width="160" height="20" rx="4" fill="#475569"/>
  <rect x="640" y="55" width="100" height="20" rx="4" fill="#475569"/>
  <rect x="40" y="110" width="300" height="320" rx="8" fill="#334155"/>
  <rect x="360" y="110" width="400" height="320" rx="8" fill="#334155"/>
  <circle cx="190" cy="170" r="50" fill="#8B5CF6" fill-opacity="0.6"/>
  <rect x="60" y="230" width="260" height="15" rx="2" fill="#475569"/>
  <rect x="60" y="255" width="200" height="15" rx="2" fill="#475569"/>
  <rect x="60" y="280" width="240" height="15" rx="2" fill="#475569"/>
  <rect x="60" y="330" width="260" height="40" rx="4" fill="#475569"/>
  <rect x="60" y="380" width="260" height="30" rx="4" fill="#475569"/>
  <rect x="380" y="130" width="360" height="60" rx="4" fill="#475569"/>
  <rect x="380" y="210" width="360" height="60" rx="4" fill="#475569"/>
  <rect x="380" y="290" width="360" height="60" rx="4" fill="#475569"/>
  <rect x="380" y="370" width="360" height="40" rx="4" fill="#475569"/>
</svg>