<svg width="800" height="450" viewBox="0 0 800 450" fill="none" xmlns="http://www.w3.org/2000/svg">
  <rect width="800" height="450" fill="#1E293B"/>
  <rect x="40" y="40" width="720" height="50" rx="8" fill="#334155"/>
  <circle cx="70" cy="65" r="10" fill="#3B82F6"/>
  <rect x="100" y="55" width="120" height="20" rx="4" fill="#475569"/>
  <rect x="560" y="55" width="80" height="20" rx="4" fill="#475569"/>
  <rect x="650" y="55" width="80" height="20" rx="4" fill="#475569"/>
  <rect x="40" y="110" width="220" height="310" rx="8" fill="#334155"/>
  <rect x="60" y="140" width="180" height="12" rx="2" fill="#475569"/>
  <rect x="60" y="162" width="120" height="12" rx="2" fill="#475569"/>
  <rect x="60" y="184" width="160" height="12" rx="2" fill="#475569"/>
  <rect x="60" y="230" width="180" height="12" rx="2" fill="#475569"/>
  <rect x="60" y="252" width="120" height="12" rx="2" fill="#475569"/>
  <rect x="60" y="274" width="160" height="12" rx="2" fill="#475569"/>
  <rect x="60" y="320" width="180" height="12" rx="2" fill="#475569"/>
  <rect x="60" y="342" width="120" height="12" rx="2" fill="#475569"/>
  <rect x="60" y="364" width="160" height="12" rx="2" fill="#475569"/>
  <rect x="280" y="110" width="480" height="150" rx="8" fill="#334155"/>
  <rect x="300" y="130" width="440" height="110" rx="4" fill="#475569"/>
  <circle cx="380" cy="185" r="40" fill="#3B82F6" fill-opacity="0.6"/>
  <rect x="440" y="170" width="120" height="12" rx="2" fill="#1E293B"/>
  <rect x="440" y="192" width="80" height="12" rx="2" fill="#1E293B"/>
  <rect x="280" y="270" width="480" height="150" rx="8" fill="#334155"/>
  <rect x="300" y="290" width="200" height="12" rx="2" fill="#475569"/>
  <rect x="300" y="310" width="440" height="90" rx="4" fill="#475569"/>
</svg>